<?xml version="1.0" standalone="no"?>
<!DOCTYPE svg PUBLIC "-//W3C//DTD SVG 1.1//EN" "http://www.w3.org/Graphics/SVG/1.1/DTD/svg11.dtd" >
<svg xmlns="http://www.w3.org/2000/svg" xmlns:xlink="http://www.w3.org/1999/xlink" version="1.1" viewBox="0 0 585 810">
  <g transform="matrix(1 0 0 -1 0 800)">
   <path fill="currentColor"
d="M30 53c0 34 27 61 60 61s60 -27 60 -61c0 -33 -27 -60 -60 -60s-60 27 -60 60zM159 723v56c62 13 132 21 198 21c145.321 0 223.507 -45.6259 223.507 -136.878c0 -21.7758 -4.4524 -46.1499 -13.5074 -73.1222c-46 -140 -193 -227 -330 -256c-39 -68 -58 -92 -99 -168
h-43l78 234c110 12 255 77 294 195c4.24793 12.7438 6.24805 24.3949 6.24805 35.0274c0 74.4692 -98.1153 98.9726 -209.248 98.9726c-33 0 -70 -2 -105 -6zM256 653h6c45.6861 0 109.898 -3.8595 109.898 -50.9126c0 -6.50286 -1.22644 -13.8307 -3.89772 -22.0874
c-22 -67 -105 -98 -168 -98z" />
  </g>

</svg>
