<svg width="200" height="200" viewBox="0 0 200 200" fill="none" xmlns="http://www.w3.org/2000/svg">
<path d="M46.3079 0H3.69438C1.65387 0 0 1.6034 0 3.58239V46.4161C0 48.3952 1.65445 50 3.69438 50H46.3079C48.348 50 50 48.3942 50 46.4161V3.58239C50 1.60398 48.348 0 46.3079 0ZM15.1586 41.8534H7.60393V19.279H15.1586V41.8534ZM11.382 16.195H11.3312C8.7978 16.195 7.15556 14.4624 7.15556 12.2934C7.15556 10.0806 8.84605 8.39502 11.4297 8.39502C14.0135 8.39502 15.6029 10.0801 15.6531 12.2934C15.6531 14.4629 14.0141 16.195 11.382 16.195ZM42.3908 41.8534H34.8386V29.7753C34.8386 26.7405 33.7444 24.6696 31.0132 24.6696C28.9239 24.6696 27.6837 26.0667 27.139 27.4155C26.9372 27.8972 26.8872 28.571 26.8872 29.2438V41.8529H19.3364C19.3364 41.8529 19.4352 21.3959 19.3364 19.2787H26.8884V22.4791C27.8909 20.9412 29.6824 18.7475 33.6929 18.7475C38.6637 18.7475 42.3908 21.9721 42.3908 28.9092V41.8534ZM26.8396 22.5508C26.8525 22.5296 26.8705 22.5042 26.8884 22.4794V22.5508H26.8396Z" transform="scale(4)" fill="black"/>
</svg>
