<?xml version="1.0" encoding="UTF-8" standalone="no"?>
<svg
   xmlns:dc="http://purl.org/dc/elements/1.1/"
   xmlns:cc="http://creativecommons.org/ns#"
   xmlns:rdf="http://www.w3.org/1999/02/22-rdf-syntax-ns#"
   xmlns:svg="http://www.w3.org/2000/svg"
   xmlns="http://www.w3.org/2000/svg"
   xmlns:sodipodi="http://sodipodi.sourceforge.net/DTD/sodipodi-0.dtd"
   xmlns:inkscape="http://www.inkscape.org/namespaces/inkscape"
   version="1.1"
   viewBox="0 -200 470.99995 806.99994"
   id="svg4150"
   inkscape:version="0.91 r13725"
   sodipodi:docname="question_prestonwho.svg"
   width="132.92665mm"
   height="227.7533mm">
  <metadata
     id="metadata4160">
    <rdf:RDF>
      <cc:Work
         rdf:about="">
        <dc:format>image/svg+xml</dc:format>
        <dc:type
           rdf:resource="http://purl.org/dc/dcmitype/StillImage" />
        <dc:title></dc:title>
      </cc:Work>
    </rdf:RDF>
  </metadata>
  <defs
     id="defs4158" />
  <sodipodi:namedview
     pagecolor="#ffffff"
     bordercolor="#666666"
     borderopacity="1"
     objecttolerance="10"
     gridtolerance="10"
     guidetolerance="10"
     inkscape:pageopacity="0"
     inkscape:pageshadow="2"
     inkscape:window-width="876"
     inkscape:window-height="1106"
     id="namedview4156"
     showgrid="false"
     inkscape:zoom="0.29"
     inkscape:cx="143.22168"
     inkscape:cy="506.99982"
     inkscape:window-x="0"
     inkscape:window-y="0"
     inkscape:window-maximized="0"
     inkscape:current-layer="svg4150"
     units="mm"
     fit-margin-top="0"
     fit-margin-left="0"
     fit-margin-right="0"
     fit-margin-bottom="0" />
  <g
     transform="matrix(1,0,0,-1,-24.000061,600)"
     id="g4152">
    <path
       d="m 126,53 c 0,34 27,61 60,61 33,0 60,-27 60,-61 0,-33 -27,-60 -60,-60 -33,0 -60,27 -60,60 z M 46,723 24,779 c 58,13 125,21 191,21 180,0 280,-70 280,-210 C 495,450 377,363 249,334 233,266 222,242 206,166 l -43,0 0,234 c 106,12 230,77 230,195 0,102 -120,134 -247,134 -33,0 -67,-2 -100,-6 z m 117,-70 6,0 c 52,0 130,-5 130,-73 0,-67 -73,-98 -136,-98 l 0,171 z"
       id="path4154"
       inkscape:connector-curvature="0"
       style="fill:currentColor" />
  </g>
</svg>
